<svg width="251" height="225" viewBox="0 0 251 225" fill="none" xmlns="http://www.w3.org/2000/svg">
<path d="M3.87676 1.06636C1.2666 3.12437 0.764648 5.78473 0.764648 17.1289C0.814844 30.6816 2.62188 43.13 7.08926 60.9996C12.0084 80.7263 17.7307 94.0783 24.1055 100.855C25.2098 102.059 26.1133 103.063 26.1133 103.164C26.1133 103.264 24.8584 105.573 23.3023 108.284C21.7463 111.044 19.5879 115.01 18.5338 117.118L16.5762 121.033H24.1557H31.7352L28.4223 124.999C18.082 137.397 8.64531 156.12 7.6916 166.058C7.54102 167.815 7.49082 169.221 7.59121 169.221C7.7418 169.221 9.74961 168.418 12.0586 167.414C16.4256 165.607 23.3023 163.699 25.7117 163.699H27.067L26.3643 165.657C24.2059 171.781 22.7502 183.727 24.2561 183.125C43.3303 175.344 51.6627 174.19 62.4045 177.854C68.5785 179.962 68.8797 180.213 70.7369 184.982C76.8607 200.743 89.9617 214.798 104.016 220.721C110.893 223.632 114.959 224.486 123.241 224.787C131.825 225.088 136.945 224.385 143.671 221.926C159.532 216.153 173.135 201.998 180.213 183.928C181.669 180.264 182.07 179.611 184.178 178.306C188.445 175.595 190.854 175.043 197.781 175.043C205.16 175.094 210.18 176.248 219.365 180.013C222.528 181.268 225.589 182.472 226.091 182.623C226.995 182.924 227.045 182.673 226.744 177.453C226.543 173.989 225.991 170.425 225.238 167.765L223.983 163.599L226.694 163.9C229.956 164.251 236.833 166.41 240.046 168.016C241.351 168.669 242.555 169.221 242.706 169.221C243.208 169.221 242.957 164.854 242.154 161.189C240.146 151.602 231.964 136.343 222.929 125.45L219.315 121.033H226.895H234.424L232.215 116.616C231.011 114.207 228.852 110.241 227.447 107.782C226.041 105.322 224.887 103.214 224.887 103.063C224.887 102.963 225.941 101.658 227.296 100.202C234.825 91.8697 241.702 73.4982 246.671 48.25C249.482 33.9945 250.185 27.4691 250.235 16.8779C250.235 6.23648 249.784 3.8271 247.424 1.41772C246.069 0.0624542 245.668 -0.0379333 243.559 0.213043C237.887 0.865585 228.099 4.73062 214.346 11.6074C194.117 21.6966 175.645 33.6933 165.455 43.381L161.49 47.0955L156.169 46.2421C147.486 44.7363 139.404 44.2343 125.5 44.2343C111.546 44.2343 103.514 44.7363 94.6801 46.2421L89.2088 47.1457L86.2473 44.1841C76.2082 34.1451 56.7324 21.4959 34.4457 10.5533C24.3063 5.53375 16.777 2.47183 11.2053 1.01617C6.38652 -0.188522 5.48301 -0.188522 3.87676 1.06636ZM27.8701 24.0558C40.2684 30.1295 58.4391 41.2226 68.4279 48.9025C70.6867 50.6091 72.8451 52.2656 73.1965 52.5668C73.7486 52.9683 72.9455 53.6711 69.2812 55.7793C60.0453 61.2003 49.8557 70.4865 41.4229 81.1279C39.2143 83.8886 37.0559 86.7498 36.5539 87.4023C35.7508 88.6572 35.7508 88.6572 34.9477 87.6533C33.3414 85.5451 28.623 75.8072 25.9125 69.0308C19.9393 54.0224 14.4178 26.0636 16.3754 20.8935C16.9777 19.4379 20.14 20.2912 27.8701 24.0558ZM234.424 21.0943C236.733 25.5115 231.161 53.8216 224.786 69.583C222.026 76.5099 216.002 88.4564 215.35 88.356C215.199 88.356 213.292 85.9466 211.083 83.0353C202.55 71.7916 191.457 61.5015 181.669 55.7793L177.101 53.1189L178.305 52.1652C192.36 41.072 214.597 27.3687 227.045 22.0982C232.265 19.8896 233.671 19.739 234.424 21.0943ZM91.8691 96.1865C93.4754 97.0398 94.9813 98.6963 96.1859 100.955C96.9891 102.461 97.1396 103.866 97.1396 110.743C97.1396 117.62 96.9891 119.025 96.1859 120.531C93.9773 124.697 91.5178 126.203 86.8496 126.203C82.1814 126.203 79.7219 124.697 77.5133 120.531C76.7102 119.025 76.5596 117.62 76.5596 110.743C76.5596 103.415 76.66 102.511 77.6639 100.654C78.9188 98.2947 81.3783 96.0359 82.9846 95.6845C83.5869 95.5841 84.5406 95.3834 85.0928 95.2328C86.5986 94.9316 90.4135 95.4837 91.8691 96.1865ZM169.17 96.1865C170.776 97.0398 172.282 98.6963 173.487 100.955C174.29 102.461 174.44 103.866 174.44 110.743C174.44 117.62 174.29 119.025 173.487 120.531C171.278 124.697 168.819 126.203 164.15 126.203C159.482 126.203 157.023 124.697 154.814 120.531C154.011 119.025 153.86 117.62 153.86 110.743C153.86 103.415 153.961 102.511 154.965 100.654C156.22 98.2947 158.679 96.0359 160.285 95.6845C160.888 95.5841 161.841 95.3834 162.394 95.2328C163.899 94.9316 167.714 95.4837 169.17 96.1865ZM140.057 181.017C147.686 181.368 148.088 181.468 148.088 183.526C148.088 188.295 136.995 202.751 129.767 207.319C125.249 210.18 122.137 209.076 115.26 202.149C108.434 195.372 102.912 186.99 102.912 183.426C102.912 181.368 103.615 181.217 114.959 180.766C123.542 180.414 128.462 180.464 140.057 181.017Z" fill="#ECECEC"/>
</svg>
