<svg width="1920" height="964" viewBox="0 0 1920 964" fill="none" xmlns="http://www.w3.org/2000/svg">
<path fill-rule="evenodd" clip-rule="evenodd" d="M-39.5425 1019.91L1959.58 1019.91L1959.58 1019.41L1960 1019.14L1424.34 0.232436L1424.11 0.377456L1424.11 0.368667L1423.98 0.368667L1423.98 0.11708L1423.93 0.11708L1423.93 0.0227192L1423.92 0.0227192L1423.92 0.00160108L1423.92 0.00160108L1423.92 0.000319345L496.12 0.000177199L496.12 0.00145894L496.119 0.00145894L496.119 0.0225771L496.108 0.0225771L496.108 0.116937L496.059 0.116937L496.059 0.368524L495.926 0.368524L495.926 0.376947L495.698 0.232416L-39.9646 1019.14L-39.5425 1019.41L-39.5425 1019.91ZM-38.7167 1018.91L75.1134 1018.91L136.141 886.47L30.9078 886.47L-38.7167 1018.91ZM76.2114 1018.91L186.477 1018.91L239.374 886.47L137.239 886.47L76.2114 1018.91ZM187.551 1018.91L294.883 1018.91L340.034 886.47L240.448 886.47L187.551 1018.91ZM295.938 1018.91L400.877 1018.91L438.595 886.47L341.089 886.47L295.938 1018.91ZM401.915 1018.91L504.93 1018.91L535.468 886.47L439.634 886.47L401.915 1018.91ZM505.955 1018.91L607.46 1018.91L631.016 886.47L536.493 886.47L505.955 1018.91ZM608.475 1018.91L708.843 1018.91L725.566 886.47L632.031 886.47L608.475 1018.91ZM709.851 1018.91L809.428 1018.91L819.42 886.47L726.573 886.47L709.851 1018.91ZM810.43 1018.91L909.54 1018.91L912.864 886.47L820.423 886.47L810.43 1018.91ZM910.54 1018.91L1009.5 1018.91L1006.17 886.47L913.864 886.47L910.54 1018.91ZM1010.5 1018.91L1109.6 1018.91L1099.61 886.47L1007.17 886.47L1010.5 1018.91ZM1110.61 1018.91L1210.18 1018.91L1193.46 886.47L1100.61 886.47L1110.61 1018.91ZM1211.19 1018.91L1311.56 1018.91L1288 886.47L1194.47 886.47L1211.19 1018.91ZM1312.58 1018.91L1414.08 1018.91L1383.54 886.47L1289.02 886.47L1312.58 1018.91ZM1415.11 1018.91L1518.12 1018.91L1480.4 886.47L1384.57 886.47L1415.11 1018.91ZM1519.16 1018.91L1624.1 1018.91L1578.95 886.47L1481.44 886.47L1519.16 1018.91ZM1625.15 1018.91L1732.48 1018.91L1679.59 886.47L1580 886.47L1625.15 1018.91ZM1733.56 1018.91L1843.82 1018.91L1782.8 886.47L1680.66 886.47L1733.56 1018.91ZM1844.92 1018.91L1958.75 1018.91L1889.13 886.47L1783.89 886.47L1844.92 1018.91ZM1130.95 3.4594L1130.84 2.86724L1082.9 2.86723L1082.97 3.4594L1130.95 3.4594ZM1131.96 3.4594L1131.86 2.86724L1179.79 2.86724L1179.93 3.4594L1131.96 3.4594ZM1131.12 4.4594L1131.38 5.90062L1083.28 5.90062L1083.1 4.4594L1131.12 4.4594ZM1132.14 4.4594L1132.4 5.90062L1180.49 5.90063L1180.16 4.4594L1132.14 4.4594ZM1132.01 9.45177L1131.56 6.90062L1083.41 6.90062L1083.73 9.45177L1132.01 9.45177ZM1133.03 9.45177L1132.57 6.90062L1180.72 6.90063L1181.31 9.45178L1133.03 9.45177ZM1132.19 10.4518L1132.89 14.4056L1084.36 14.4056L1083.86 10.4518L1132.19 10.4518ZM1133.21 10.4518L1133.91 14.4056L1182.45 14.4056L1181.54 10.4518L1133.21 10.4518ZM1134.08 21.0921L1133.07 15.4056L1084.48 15.4056L1085.2 21.0921L1134.08 21.0921ZM1135.1 21.0921L1134.09 15.4056L1182.68 15.4056L1183.99 21.0921L1135.1 21.0921ZM1134.26 22.0921L1135.64 29.8721L1086.31 29.8721L1085.33 22.0921L1134.26 22.0921ZM1135.28 22.0921L1136.66 29.8721L1186.02 29.8721L1184.23 22.0921L1135.28 22.0921ZM1137.65 41.1446L1135.82 30.8721L1086.44 30.8721L1087.73 41.1446L1137.65 41.1446ZM1138.66 41.1446L1136.84 30.8721L1186.25 30.8721L1188.62 41.1446L1138.66 41.1446ZM1137.83 42.1446L1140.17 55.3424L1089.52 55.3424L1087.86 42.1446L1137.83 42.1446ZM1138.84 42.1446L1141.19 55.3424L1191.89 55.3424L1188.85 42.1446L1138.84 42.1446ZM1143.3 72.9308L1140.35 56.3424L1089.65 56.3424L1091.75 72.9308L1143.3 72.9308ZM1144.32 72.9308L1141.37 56.3424L1192.12 56.3424L1195.95 72.9308L1144.32 72.9308ZM1143.48 73.9308L1147.12 94.4105L1094.46 94.4104L1091.87 73.9308L1143.48 73.9308ZM1144.5 73.9308L1148.14 94.4105L1200.9 94.4105L1196.18 73.9308L1144.5 73.9308ZM1151.73 120.32L1147.3 95.4105L1094.58 95.4104L1097.73 120.32L1151.73 120.32ZM1152.75 120.32L1148.32 95.4105L1201.13 95.4105L1206.88 120.32L1152.75 120.32ZM1151.91 121.32L1157.23 151.228L1101.63 151.228L1097.86 121.32L1151.91 121.32ZM1152.93 121.32L1158.24 151.228L1214 151.228L1207.11 121.32L1152.93 121.32ZM1163.72 187.739L1157.41 152.228L1101.76 152.228L1106.24 187.739L1163.72 187.739ZM1164.74 187.739L1158.42 152.228L1214.23 152.228L1222.42 187.739L1164.74 187.739ZM1163.9 188.739L1171.33 230.495L1111.64 230.495L1106.37 188.739L1163.9 188.739ZM1164.92 188.739L1172.34 230.495L1232.28 230.495L1222.65 188.739L1164.92 188.739ZM1180.16 280.168L1171.51 231.495L1111.77 231.495L1117.91 280.168L1180.16 280.168ZM1181.18 280.168L1172.52 231.495L1232.51 231.495L1243.73 280.168L1181.18 280.168ZM1180.34 281.168L1190.36 337.468L1125.15 337.468L1118.04 281.168L1180.34 281.168ZM1181.36 281.168L1191.37 337.468L1256.95 337.468L1243.97 281.168L1181.36 281.168ZM1202.04 403.137L1190.53 338.468L1125.27 338.468L1133.44 403.137L1202.04 403.137ZM1203.05 403.137L1191.55 338.468L1257.18 338.468L1272.09 403.137L1203.05 403.137ZM1202.21 404.137L1215.34 477.954L1142.89 477.954L1133.57 404.137L1202.21 404.137ZM1203.23 404.137L1216.36 477.954L1289.34 477.954L1272.32 404.137L1203.23 404.137ZM1230.42 562.733L1215.52 478.954L1143.01 478.954L1153.59 562.733L1230.42 562.733ZM1231.44 562.733L1216.54 478.954L1289.57 478.954L1308.89 562.733L1231.44 562.733ZM1230.6 563.733L1247.42 658.318L1165.66 658.317L1153.72 563.733L1230.6 563.733ZM1231.62 563.733L1248.44 658.318L1330.93 658.318L1309.12 563.733L1231.62 563.733ZM1266.5 765.592L1247.6 659.318L1165.79 659.317L1179.21 765.592L1266.5 765.592ZM1267.52 765.592L1248.62 659.318L1331.16 659.318L1355.67 765.592L1267.52 765.592ZM1266.68 766.592L1287.83 885.47L1194.34 885.47L1179.33 766.592L1266.68 766.592ZM1267.7 766.592L1288.84 885.47L1383.31 885.47L1355.9 766.592L1267.7 766.592ZM1178.33 766.592L1193.34 885.47L1100.54 885.47L1091.57 766.592L1178.33 766.592ZM1090.57 766.592L1099.54 885.47L1007.15 885.47L1004.16 766.592L1090.57 766.592ZM1003.16 766.592L1006.15 885.47L913.89 885.47L916.873 766.592L1003.16 766.592ZM915.873 766.592L912.889 885.47L820.498 885.47L829.468 766.592L915.873 766.592ZM828.465 766.592L819.496 885.47L726.7 885.47L741.71 766.592L828.465 766.592ZM740.703 766.592L725.692 885.47L632.208 885.47L653.353 766.592L740.703 766.592ZM652.338 766.592L631.193 885.47L536.724 885.47L564.136 766.592L652.338 766.592ZM563.111 766.592L535.699 885.47L439.919 885.47L473.776 766.592L563.111 766.592ZM472.738 766.592L438.88 885.47L341.43 885.47L381.959 766.592L472.738 766.592ZM380.904 766.592L340.375 885.47L240.847 885.47L288.33 766.591L380.904 766.592ZM287.256 766.591L239.773 885.47L137.7 885.47L192.48 766.591L287.256 766.591ZM191.382 766.591L136.602 885.47L31.4336 885.47L93.9309 766.591L191.382 766.591ZM1826.1 766.592L1888.6 885.47L1783.43 885.47L1728.65 766.592L1826.1 766.592ZM1727.55 766.592L1782.34 885.47L1680.26 885.47L1632.78 766.592L1727.55 766.592ZM1631.71 766.592L1679.19 885.47L1579.66 885.47L1539.13 766.592L1631.71 766.592ZM1538.08 766.592L1578.61 885.47L1481.16 885.47L1447.3 766.592L1538.08 766.592ZM1446.26 766.592L1480.12 885.47L1384.34 885.47L1356.92 766.592L1446.26 766.592ZM1178.2 765.592L1164.78 659.317L1083.48 659.317L1091.49 765.592L1178.2 765.592ZM1090.49 765.592L1082.47 659.317L1001.47 659.317L1004.14 765.592L1090.49 765.592ZM1003.14 765.592L1000.47 659.317L919.566 659.317L916.898 765.592L1003.14 765.592ZM915.898 765.592L918.566 659.317L837.562 659.317L829.544 765.592L915.898 765.592ZM828.541 765.592L836.56 659.317L755.256 659.317L741.837 765.592L828.541 765.592ZM740.829 765.592L754.248 659.317L672.434 659.317L653.531 765.592L740.829 765.592ZM652.516 765.592L671.419 659.317L588.873 659.317L564.367 765.592L652.516 765.592ZM563.342 765.592L587.847 659.317L504.329 659.317L474.061 765.592L563.342 765.592ZM473.023 765.592L503.29 659.317L418.532 659.317L382.3 765.592L473.023 765.592ZM381.245 765.592L417.477 659.317L331.177 659.317L288.729 765.591L381.245 765.592ZM287.655 765.591L330.103 659.317L241.913 659.317L192.941 765.591L287.655 765.591ZM191.843 765.591L240.815 659.317L150.328 659.317L94.4567 765.591L191.843 765.591ZM1825.58 765.592L1769.71 659.318L1679.22 659.318L1728.19 765.592L1825.58 765.592ZM1727.09 765.592L1678.12 659.318L1589.93 659.318L1632.38 765.592L1727.09 765.592ZM1631.31 765.592L1588.86 659.318L1502.56 659.318L1538.79 765.592L1631.31 765.592ZM1537.74 765.592L1501.5 659.318L1416.75 659.318L1447.01 765.592L1537.74 765.592ZM1445.97 765.592L1415.71 659.318L1332.19 659.318L1356.69 765.592L1445.97 765.592ZM1152.71 563.733L1164.65 658.317L1083.4 658.317L1076.26 563.733L1152.71 563.733ZM1075.26 563.733L1082.4 658.317L1001.44 658.317L999.071 563.733L1075.26 563.733ZM998.07 563.733L1000.44 658.317L919.591 658.317L921.965 563.733L998.07 563.733ZM920.965 563.733L918.591 658.317L837.638 658.317L844.774 563.733L920.965 563.733ZM843.772 563.733L836.635 658.317L755.382 658.317L767.325 563.733L843.772 563.733ZM766.317 563.733L754.374 658.317L672.611 658.317L689.435 563.733L766.317 563.733ZM688.42 563.733L671.596 658.317L589.103 658.317L610.913 563.733L688.42 563.733ZM609.888 563.733L588.078 658.317L504.614 658.317L531.552 563.733L609.888 563.733ZM530.513 563.733L503.575 658.317L418.872 658.317L451.119 563.733L530.513 563.733ZM450.064 563.733L417.818 658.317L331.576 658.317L369.355 563.733L450.064 563.733ZM368.281 563.733L330.502 658.317L242.373 658.317L285.958 563.733L368.281 563.733ZM284.861 563.733L241.275 658.317L150.853 658.317L200.578 563.733L284.861 563.733ZM1719.46 563.733L1769.18 658.318L1678.76 658.318L1635.17 563.733L1719.46 563.733ZM1634.08 563.733L1677.66 658.318L1589.53 658.318L1551.75 563.733L1634.08 563.733ZM1550.68 563.733L1588.46 658.318L1502.22 658.318L1469.97 563.733L1550.68 563.733ZM1468.92 563.733L1501.16 658.318L1416.46 658.318L1389.52 563.733L1468.92 563.733ZM1388.48 563.733L1415.42 658.318L1331.96 658.318L1310.15 563.733L1388.48 563.733ZM1152.58 562.733L1142.01 478.954L1069.87 478.954L1076.19 562.733L1152.58 562.733ZM1075.19 562.733L1068.86 478.954L996.943 478.954L999.046 562.733L1075.19 562.733ZM998.045 562.733L995.942 478.954L924.093 478.954L921.99 562.733L998.045 562.733ZM920.99 562.733L923.093 478.954L851.171 478.954L844.85 562.733L920.99 562.733ZM843.847 562.733L850.169 478.954L778.03 478.954L767.451 562.733L843.847 562.733ZM766.444 562.733L777.022 478.954L704.514 478.954L689.613 562.733L766.444 562.733ZM688.598 562.733L703.499 478.954L630.463 478.954L611.144 562.733L688.598 562.733ZM610.119 562.733L629.437 478.954L555.697 478.954L531.837 562.733L610.119 562.733ZM530.798 562.733L554.659 478.954L480.023 478.954L451.46 562.733L530.798 562.733ZM450.405 562.733L478.968 478.954L403.217 478.954L369.754 562.733L450.405 562.733ZM368.68 562.733L402.143 478.954L325.025 478.954L286.419 562.733L368.68 562.733ZM285.321 562.733L323.927 478.954L245.149 478.954L201.104 562.733L285.321 562.733ZM1718.93 562.733L1674.89 478.955L1596.11 478.954L1634.71 562.733L1718.93 562.733ZM1633.62 562.733L1595.01 478.954L1517.89 478.954L1551.36 562.733L1633.62 562.733ZM1550.28 562.733L1516.82 478.954L1441.07 478.954L1469.63 562.733L1550.28 562.733ZM1468.58 562.733L1440.01 478.954L1365.38 478.954L1389.24 562.733L1468.58 562.733ZM1388.2 562.733L1364.34 478.954L1290.6 478.954L1309.92 562.733L1388.2 562.733ZM1132.56 404.137L1141.88 477.954L1069.79 477.954L1064.22 404.137L1132.56 404.137ZM1063.22 404.137L1068.79 477.954L996.918 477.954L995.065 404.137L1063.22 404.137ZM994.065 404.137L995.917 477.954L924.118 477.954L925.971 404.137L994.065 404.137ZM924.971 404.137L923.118 477.954L851.247 477.954L856.816 404.137L924.971 404.137ZM855.814 404.137L850.244 477.954L778.156 477.954L787.477 404.137L855.814 404.137ZM786.469 404.137L777.148 477.954L704.692 477.954L717.822 404.137L786.469 404.137ZM716.807 404.137L703.677 477.954L630.693 477.954L647.715 404.137L716.807 404.137ZM646.69 404.137L629.668 477.954L555.982 477.954L577.006 404.137L646.69 404.137ZM575.968 404.137L554.944 477.954L480.363 477.954L505.53 404.137L575.968 404.137ZM504.475 404.137L479.309 477.954L403.617 477.954L433.1 404.137L504.475 404.137ZM432.026 404.137L402.542 477.954L325.486 477.954L359.501 404.137L432.026 404.137ZM358.403 404.137L324.388 477.954L245.674 477.954L284.482 404.137L358.403 404.137ZM1635.55 404.138L1674.36 477.955L1595.65 477.954L1561.63 404.138L1635.55 404.138ZM1560.53 404.138L1594.55 477.954L1517.49 477.954L1488.01 404.138L1560.53 404.138ZM1486.94 404.138L1516.42 477.954L1440.73 477.954L1415.56 404.138L1486.94 404.138ZM1414.51 404.138L1439.67 477.954L1365.09 477.954L1344.07 404.138L1414.51 404.138ZM1343.03 404.138L1364.05 477.954L1290.37 477.954L1273.35 404.137L1343.03 404.138ZM1132.43 403.137L1124.27 338.468L1059.27 338.468L1064.15 403.137L1132.43 403.137ZM1063.14 403.137L1058.26 338.468L993.417 338.468L995.04 403.137L1063.14 403.137ZM994.039 403.137L992.416 338.468L927.619 338.468L925.996 403.137L994.039 403.137ZM924.996 403.137L926.619 338.468L861.771 338.468L856.892 403.137L924.996 403.137ZM855.889 403.137L860.769 338.468L795.769 338.468L787.603 403.137L855.889 403.137ZM786.596 403.137L794.761 338.468L729.502 338.468L717.999 403.137L786.596 403.137ZM716.985 403.137L728.487 338.468L662.857 338.468L647.945 403.137L716.985 403.137ZM646.92 403.137L661.832 338.468L595.709 338.468L577.291 403.137L646.92 403.137ZM576.252 403.137L594.671 338.468L527.918 338.468L505.871 403.137L576.252 403.137ZM504.816 403.137L526.864 338.468L459.33 338.468L433.5 403.137L504.816 403.137ZM432.425 403.137L458.256 338.468L389.762 338.468L359.962 403.137L432.425 403.137ZM358.864 403.137L388.664 338.468L319.006 338.468L285.007 403.137L358.864 403.137ZM1635.03 403.138L1601.03 338.468L1531.37 338.468L1561.17 403.138L1635.03 403.138ZM1560.07 403.138L1530.27 338.468L1461.78 338.468L1487.61 403.138L1560.07 403.138ZM1486.54 403.138L1460.71 338.468L1393.17 338.468L1415.22 403.138L1486.54 403.138ZM1414.16 403.138L1392.12 338.468L1325.37 338.468L1343.78 403.138L1414.16 403.138ZM1342.75 403.138L1324.33 338.468L1258.2 338.468L1273.12 403.137L1342.75 403.138ZM1117.03 281.168L1124.14 337.468L1059.19 337.468L1054.94 281.168L1117.03 281.168ZM1053.94 281.168L1058.19 337.468L993.391 337.468L991.978 281.168L1053.94 281.168ZM990.978 281.168L992.391 337.468L927.644 337.468L929.058 281.168L990.978 281.168ZM928.057 281.168L926.644 337.468L861.847 337.468L866.095 281.168L928.057 281.168ZM865.092 281.168L860.844 337.468L795.895 337.468L803.004 281.168L865.092 281.168ZM801.996 281.168L794.888 337.468L729.68 337.468L739.694 281.168L801.996 281.168ZM738.679 281.168L728.665 337.468L663.088 337.468L676.07 281.168L738.679 281.168ZM675.045 281.168L662.063 337.468L595.994 337.468L612.029 281.168L675.045 281.168ZM610.99 281.168L594.956 337.468L528.259 337.468L547.453 281.168L610.99 281.168ZM546.399 281.168L527.205 337.468L459.729 337.468L482.216 281.168L546.399 281.168ZM481.142 281.168L458.655 337.468L390.223 337.468L416.167 281.168L481.142 281.168ZM415.069 281.168L389.125 337.468L319.531 337.468L349.129 281.168L415.069 281.168ZM1570.91 281.168L1600.5 337.468L1530.91 337.468L1504.97 281.168L1570.91 281.168ZM1503.87 281.168L1529.81 337.468L1461.38 337.468L1438.89 281.168L1503.87 281.168ZM1437.82 281.168L1460.31 337.468L1392.83 337.468L1373.64 281.168L1437.82 281.168ZM1372.58 281.168L1391.78 337.468L1325.08 337.468L1309.05 281.168L1372.58 281.168ZM1308.01 281.168L1324.04 337.468L1257.97 337.468L1244.99 281.168L1308.01 281.168ZM1116.91 280.168L1110.76 231.495L1051.2 231.495L1054.87 280.168L1116.91 280.168ZM1053.86 280.168L1050.19 231.495L990.732 231.495L991.953 280.168L1053.86 280.168ZM990.953 280.168L989.731 231.495L930.304 231.495L929.083 280.168L990.953 280.168ZM928.083 280.168L929.304 231.495L869.843 231.495L866.17 280.168L928.083 280.168ZM865.168 280.168L868.84 231.495L809.276 231.495L803.13 280.168L865.168 280.168ZM802.123 280.168L808.269 231.495L748.529 231.495L739.872 280.168L802.123 280.168ZM738.857 280.168L747.514 231.495L687.524 231.495L676.301 280.168L738.857 280.168ZM675.276 280.168L686.499 231.495L626.176 231.495L612.313 280.168L675.276 280.168ZM611.275 280.168L625.137 231.495L564.388 231.495L547.794 280.168L611.275 280.168ZM546.74 280.168L563.334 231.495L502.057 231.495L482.616 280.168L546.74 280.168ZM481.542 280.168L500.982 231.495L439.056 231.495L416.627 280.168L481.542 280.168ZM415.529 280.168L437.958 231.495L375.244 231.495L349.655 280.168L415.529 280.168ZM1570.38 280.168L1544.79 231.495L1482.08 231.495L1504.51 280.168L1570.38 280.168ZM1503.41 280.168L1480.98 231.495L1419.05 231.495L1438.49 280.168L1503.41 280.168ZM1437.42 280.168L1417.98 231.495L1356.7 231.495L1373.3 280.168L1437.42 280.168ZM1372.24 280.168L1355.65 231.495L1294.9 231.495L1308.76 280.168L1372.24 280.168ZM1307.72 280.168L1293.86 231.495L1233.54 231.495L1244.76 280.168L1307.72 280.168ZM1105.36 188.739L1110.63 230.495L1051.12 230.495L1047.97 188.739L1105.36 188.739ZM1046.97 188.739L1050.12 230.495L990.706 230.495L989.658 188.739L1046.97 188.739ZM988.658 188.739L989.706 230.495L930.329 230.495L931.378 188.739L988.658 188.739ZM930.377 188.739L929.329 230.495L869.918 230.495L873.069 188.739L930.377 188.739ZM872.066 188.739L868.915 230.495L809.402 230.495L814.675 188.739L872.066 188.739ZM813.667 188.739L808.395 230.495L748.707 230.495L756.134 188.739L813.667 188.739ZM755.119 188.739L747.692 230.495L687.755 230.495L697.383 188.739L755.119 188.739ZM696.358 188.739L686.73 230.495L626.461 230.495L638.353 188.739L696.358 188.739ZM637.315 188.739L625.422 230.495L564.729 230.495L578.965 188.739L637.315 188.739ZM577.911 188.739L563.675 230.495L502.456 230.495L519.134 188.739L577.911 188.739ZM518.06 188.739L501.382 230.495L439.517 230.495L458.758 188.739L518.06 188.739ZM457.66 188.739L438.419 230.495L375.769 230.495L397.721 188.739L457.66 188.739ZM1522.31 188.74L1544.27 230.495L1481.62 230.495L1462.37 188.74L1522.31 188.74ZM1461.28 188.74L1480.52 230.495L1418.65 230.495L1401.98 188.74L1461.28 188.74ZM1400.9 188.74L1417.58 230.495L1356.36 230.495L1342.12 188.74L1400.9 188.74ZM1341.07 188.74L1355.31 230.495L1294.61 230.495L1282.72 188.74L1341.07 188.74ZM1281.68 188.74L1293.58 230.495L1233.31 230.495L1223.68 188.739L1281.68 188.74ZM1105.23 187.739L1100.75 152.228L1045.21 152.228L1047.89 187.739L1105.23 187.739ZM1046.89 187.739L1044.21 152.228L988.742 152.228L989.633 187.739L1046.89 187.739ZM988.633 187.739L987.742 152.228L932.294 152.228L931.403 187.739L988.633 187.739ZM930.402 187.739L931.294 152.228L875.824 152.228L873.144 187.739L930.402 187.739ZM872.142 187.739L874.821 152.228L819.285 152.228L814.801 187.739L872.142 187.739ZM813.793 187.739L818.277 152.228L762.628 152.228L756.312 187.739L813.793 187.739ZM755.297 187.739L761.613 152.228L705.803 152.228L697.614 187.739L755.297 187.739ZM696.589 187.739L704.777 152.228L648.752 152.228L638.638 187.739L696.589 187.739ZM637.599 187.739L647.713 152.228L591.413 152.228L579.306 187.739L637.599 187.739ZM578.252 187.739L590.358 152.228L533.717 152.228L519.533 187.739L578.252 187.739ZM518.459 187.739L532.643 152.228L475.583 152.228L459.219 187.739L518.459 187.739ZM458.121 187.739L474.485 152.228L416.916 152.228L398.247 187.739L458.121 187.739ZM1521.79 187.74L1503.12 152.228L1445.55 152.228L1461.91 187.74L1521.79 187.74ZM1460.82 187.74L1444.45 152.228L1387.39 152.228L1401.58 187.74L1460.82 187.74ZM1400.5 187.74L1386.32 152.228L1329.68 152.228L1341.78 187.74L1400.5 187.74ZM1340.73 187.74L1328.62 152.228L1272.32 152.228L1282.44 187.74L1340.73 187.74ZM1281.4 187.74L1271.28 152.228L1215.26 152.228L1223.45 187.739L1281.4 187.74ZM1096.85 121.32L1100.62 151.228L1045.14 151.228L1042.88 121.32L1096.85 121.32ZM1041.88 121.32L1044.14 151.228L988.717 151.228L987.966 121.32L1041.88 121.32ZM986.966 121.32L987.717 151.228L932.319 151.228L933.07 121.32L986.966 121.32ZM932.07 121.32L931.319 151.228L875.899 151.228L878.156 121.32L932.07 121.32ZM877.153 121.32L874.896 151.228L819.411 151.228L823.188 121.32L877.153 121.32ZM822.18 121.32L818.404 151.228L762.806 151.228L768.126 121.32L822.18 121.32ZM767.111 121.32L761.791 151.228L706.033 151.228L712.93 121.32L767.111 121.32ZM711.904 121.32L705.008 151.228L649.036 151.228L657.554 121.32L711.904 121.32ZM656.516 121.32L647.998 151.228L591.754 151.228L601.95 121.32L656.516 121.32ZM600.896 121.32L590.699 151.228L534.117 151.228L546.062 121.32L600.896 121.32ZM544.988 121.32L533.042 151.228L476.044 151.228L489.826 121.32L544.988 121.32ZM488.728 121.32L474.946 151.228L417.442 151.228L433.165 121.32L488.728 121.32ZM1486.87 121.32L1502.59 151.228L1445.09 151.228L1431.31 121.32L1486.87 121.32ZM1430.21 121.32L1443.99 151.228L1386.99 151.228L1375.05 121.32L1430.21 121.32ZM1373.97 121.32L1385.92 151.228L1329.34 151.228L1319.14 121.32L1373.97 121.32ZM1318.08 121.32L1328.28 151.228L1272.04 151.228L1263.52 121.32L1318.08 121.32ZM1262.48 121.32L1271 151.228L1215.03 151.228L1208.13 121.32L1262.48 121.32ZM1096.72 120.32L1093.58 95.4104L1040.93 95.4104L1042.81 120.32L1096.72 120.32ZM1041.8 120.32L1039.92 95.4104L987.316 95.4104L987.941 120.32L1041.8 120.32ZM986.941 120.32L986.316 95.4104L933.72 95.4104L933.095 120.32L986.941 120.32ZM932.095 120.32L932.72 95.4104L880.111 95.4104L878.231 120.32L932.095 120.32ZM877.228 120.32L879.108 95.4104L826.459 95.4104L823.314 120.32L877.228 120.32ZM822.306 120.32L825.452 95.4104L772.734 95.4104L768.304 120.32L822.306 120.32ZM767.289 120.32L771.719 95.4104L718.904 95.4104L713.16 120.32L767.289 120.32ZM712.135 120.32L717.879 95.4104L664.934 95.4103L657.839 120.32L712.135 120.32ZM656.801 120.32L663.895 95.4103L610.784 95.4103L602.291 120.32L656.801 120.32ZM601.237 120.32L609.729 95.4103L556.411 95.4103L546.462 120.32L601.237 120.32ZM545.388 120.32L555.337 95.4103L501.765 95.4103L490.287 120.32L545.388 120.32ZM489.189 120.32L500.667 95.4103L446.787 95.4103L433.691 120.32L489.189 120.32ZM1486.34 120.32L1473.25 95.4105L1419.37 95.4105L1430.85 120.32L1486.34 120.32ZM1429.75 120.32L1418.27 95.4105L1364.7 95.4105L1374.65 120.32L1429.75 120.32ZM1373.57 120.32L1363.62 95.4105L1310.31 95.4105L1318.8 120.32L1373.57 120.32ZM1317.74 120.32L1309.25 95.4105L1256.14 95.4105L1263.24 120.32L1317.74 120.32ZM1262.2 120.32L1255.1 95.4105L1202.16 95.4105L1207.9 120.32L1262.2 120.32ZM1090.86 73.9308L1093.45 94.4104L1040.85 94.4104L1039.31 73.9308L1090.86 73.9308ZM1038.3 73.9308L1039.85 94.4104L987.291 94.4104L986.777 73.9308L1038.3 73.9308ZM985.777 73.9308L986.291 94.4104L933.745 94.4104L934.259 73.9308L985.777 73.9308ZM933.259 73.9308L932.745 94.4104L880.186 94.4104L881.731 73.9308L933.259 73.9308ZM880.729 73.9308L879.183 94.4104L826.586 94.4104L829.171 73.9308L880.729 73.9308ZM828.164 73.9308L825.578 94.4104L772.912 94.4104L776.555 73.9308L828.164 73.9308ZM775.54 73.9308L771.897 94.4104L719.135 94.4104L723.857 73.9308L775.54 73.9308ZM722.832 73.9308L718.11 94.4104L665.218 94.4103L671.051 73.9307L722.832 73.9308ZM670.013 73.9307L664.18 94.4103L611.124 94.4103L618.107 73.9307L670.013 73.9307ZM617.052 73.9307L610.07 94.4103L556.811 94.4103L564.991 73.9307L617.052 73.9307ZM563.916 73.9307L555.736 94.4103L502.226 94.4103L511.663 73.9307L563.916 73.9307ZM510.565 73.9307L501.128 94.4103L447.312 94.4103L458.079 73.9307L510.565 73.9307ZM1461.96 73.9309L1472.72 94.4105L1418.91 94.4105L1409.47 73.9309L1461.96 73.9309ZM1408.37 73.9309L1417.81 94.4105L1364.3 94.4105L1356.12 73.9309L1408.37 73.9309ZM1355.04 73.9309L1363.22 94.4105L1309.97 94.4105L1302.98 73.9309L1355.04 73.9309ZM1301.93 73.9309L1308.91 94.4105L1255.86 94.4105L1250.02 73.9309L1301.93 73.9309ZM1248.98 73.9309L1254.82 94.4105L1201.93 94.4105L1197.2 73.9308L1248.98 73.9309ZM1090.74 72.9308L1088.64 56.3424L1037.98 56.3424L1039.23 72.9308L1090.74 72.9308ZM1038.23 72.9308L1036.98 56.3424L986.335 56.3424L986.752 72.9308L1038.23 72.9308ZM985.751 72.9308L985.335 56.3424L934.701 56.3424L934.284 72.9308L985.751 72.9308ZM933.284 72.9308L933.701 56.3424L883.059 56.3424L881.807 72.9308L933.284 72.9308ZM880.804 72.9308L882.056 56.3424L831.392 56.3424L829.298 72.9308L880.804 72.9308ZM828.29 72.9308L830.385 56.3424L779.683 56.3424L776.733 72.9308L828.29 72.9308ZM775.717 72.9308L778.668 56.3424L727.913 56.3424L724.088 72.9308L775.717 72.9308ZM723.063 72.9308L726.888 56.3424L676.061 56.3423L671.336 72.9307L723.063 72.9308ZM670.298 72.9307L675.022 56.3423L624.103 56.3423L618.447 72.9307L670.298 72.9307ZM617.393 72.9307L623.049 56.3423L572.016 56.3423L565.39 72.9307L617.393 72.9307ZM564.316 72.9307L570.941 56.3423L519.768 56.3423L512.124 72.9307L564.316 72.9307ZM511.026 72.9307L518.67 56.3423L467.326 56.3423L458.605 72.9307L511.026 72.9307ZM1461.43 72.9309L1452.71 56.3425L1401.37 56.3425L1409.01 72.9309L1461.43 72.9309ZM1407.91 72.9309L1400.27 56.3425L1349.09 56.3425L1355.72 72.9309L1407.91 72.9309ZM1354.65 72.9309L1348.02 56.3425L1296.99 56.3425L1302.64 72.9309L1354.65 72.9309ZM1301.59 72.9309L1295.93 56.3425L1245.01 56.3425L1249.74 72.9309L1301.59 72.9309ZM1248.7 72.9309L1243.98 56.3425L1193.15 56.3424L1196.97 72.9308L1248.7 72.9309ZM1086.85 42.1446L1088.52 55.3424L1037.9 55.3424L1036.91 42.1446L1086.85 42.1446ZM1035.91 42.1446L1036.9 55.3424L986.31 55.3424L985.979 42.1446L1035.91 42.1446ZM984.979 42.1446L985.31 55.3424L934.726 55.3424L935.057 42.1446L984.979 42.1446ZM934.057 42.1446L933.726 55.3424L883.134 55.3424L884.13 42.1446L934.057 42.1446ZM883.127 42.1446L882.131 55.3424L831.519 55.3424L833.185 42.1446L883.127 42.1446ZM832.177 42.1446L830.511 55.3424L779.861 55.3424L782.208 42.1446L832.177 42.1446ZM781.193 42.1446L778.846 55.3424L728.144 55.3424L731.187 42.1446L781.193 42.1446ZM730.161 42.1446L727.118 55.3424L676.345 55.3423L680.104 42.1445L730.161 42.1446ZM679.066 42.1445L675.307 55.3423L624.444 55.3423L628.943 42.1445L679.066 42.1445ZM627.889 42.1445L623.389 55.3423L572.415 55.3423L577.687 42.1445L627.889 42.1445ZM576.612 42.1445L571.341 55.3423L520.229 55.3423L526.31 42.1445L576.612 42.1445ZM525.212 42.1445L519.131 55.3423L467.852 55.3423L474.79 42.1445L525.212 42.1445ZM1445.25 42.1447L1452.18 55.3425L1400.9 55.3425L1394.82 42.1447L1445.25 42.1447ZM1393.72 42.1447L1399.81 55.3425L1348.69 55.3425L1343.42 42.1447L1393.72 42.1447ZM1342.35 42.1447L1347.62 55.3425L1296.65 55.3425L1292.15 42.1447L1342.35 42.1447ZM1291.09 42.1447L1295.59 55.3425L1244.73 55.3425L1240.97 42.1447L1291.09 42.1447ZM1239.93 42.1447L1243.69 55.3425L1192.92 55.3424L1189.87 42.1446L1239.93 42.1447ZM1086.72 41.1446L1085.43 30.8721L1036.06 30.8721L1036.83 41.1446L1086.72 41.1446ZM1035.83 41.1446L1035.05 30.8721L985.696 30.872L985.954 41.1446L1035.83 41.1446ZM984.954 41.1446L984.696 30.872L935.34 30.872L935.082 41.1446L984.954 41.1446ZM934.082 41.1446L934.34 30.872L884.98 30.872L884.205 41.1446L934.082 41.1446ZM883.203 41.1446L883.978 30.872L834.608 30.872L833.311 41.1446L883.203 41.1446ZM832.304 41.1446L833.601 30.872L784.213 30.872L782.386 41.1446L832.304 41.1446ZM781.371 41.1446L783.198 30.872L733.786 30.872L731.417 41.1446L781.371 41.1446ZM730.392 41.1446L732.761 30.872L683.315 30.872L680.389 41.1445L730.392 41.1446ZM679.351 41.1445L682.276 30.872L632.787 30.872L629.284 41.1445L679.351 41.1445ZM628.23 41.1445L631.732 30.872L582.189 30.8719L578.086 41.1445L628.23 41.1445ZM577.012 41.1445L581.115 30.8719L531.505 30.8719L526.771 41.1445L577.012 41.1445ZM525.673 41.1445L530.407 30.8719L480.716 30.8719L475.316 41.1445L525.673 41.1445ZM1444.72 41.1447L1439.32 30.8721L1389.63 30.8721L1394.36 41.1447L1444.72 41.1447ZM1393.26 41.1447L1388.53 30.8721L1338.92 30.8721L1343.02 41.1447L1393.26 41.1447ZM1341.95 41.1447L1337.85 30.8721L1288.3 30.8721L1291.81 41.1447L1341.95 41.1447ZM1290.75 41.1447L1287.25 30.8721L1237.76 30.8721L1240.69 41.1447L1290.75 41.1447ZM1239.65 41.1447L1236.72 30.8721L1187.27 30.8721L1189.64 41.1446L1239.65 41.1447ZM1084.32 22.0921L1085.3 29.8721L1035.98 29.8721L1035.4 22.0921L1084.32 22.0921ZM1034.39 22.0921L1034.98 29.8721L985.671 29.872L985.476 22.0921L1034.39 22.0921ZM984.475 22.0921L984.671 29.872L935.365 29.872L935.56 22.092L984.475 22.0921ZM934.56 22.092L934.365 29.872L885.056 29.872L885.643 22.092L934.56 22.092ZM884.64 22.092L884.053 29.872L834.735 29.872L835.717 22.092L884.64 22.092ZM834.709 22.092L833.727 29.872L784.391 29.872L785.775 22.092L834.709 22.092ZM784.76 22.092L783.376 29.872L734.017 29.872L735.811 22.092L784.76 22.092ZM734.785 22.092L732.991 29.872L683.599 29.872L685.815 22.092L734.785 22.092ZM684.777 22.092L682.561 29.872L633.128 29.872L635.78 22.092L684.777 22.092ZM634.726 22.092L632.073 29.872L582.588 29.8719L585.696 22.092L634.726 22.092ZM584.622 22.092L581.514 29.8719L531.966 29.8719L535.551 22.092L584.622 22.092ZM534.453 22.092L530.868 29.8719L481.242 29.8719L485.332 22.092L534.453 22.092ZM1434.7 22.0921L1438.79 29.8721L1389.17 29.8721L1385.58 22.0921L1434.7 22.0921ZM1384.48 22.0921L1388.07 29.8721L1338.52 29.8721L1335.41 22.0921L1384.48 22.0921ZM1334.34 22.0921L1337.45 29.8721L1287.96 29.8721L1285.31 22.0921L1334.34 22.0921ZM1284.26 22.0921L1286.91 29.8721L1237.47 29.8721L1235.26 22.0921L1284.26 22.0921ZM1234.22 22.0921L1236.44 29.8721L1187.04 29.8721L1185.25 22.0921L1234.22 22.0921ZM1084.19 21.0921L1083.47 15.4056L1034.89 15.4056L1035.32 21.0921L1084.19 21.0921ZM1034.32 21.0921L1033.89 15.4056L985.308 15.4056L985.45 21.0921L1034.32 21.0921ZM984.45 21.0921L984.307 15.4056L935.728 15.4056L935.586 21.092L984.45 21.0921ZM934.585 21.092L934.728 15.4056L886.147 15.4055L885.718 21.092L934.585 21.092ZM884.716 21.092L885.145 15.4055L836.561 15.4055L835.843 21.092L884.716 21.092ZM834.836 21.092L835.554 15.4055L786.964 15.4055L785.953 21.092L834.836 21.092ZM784.938 21.092L785.949 15.4055L737.353 15.4055L736.041 21.092L784.938 21.092ZM735.016 21.092L736.327 15.4055L687.72 15.4055L686.1 21.092L735.016 21.092ZM685.062 21.092L686.681 15.4055L638.06 15.4055L636.121 21.092L685.062 21.092ZM635.066 21.092L637.005 15.4055L588.367 15.4055L586.095 21.092L635.066 21.092ZM585.021 21.092L587.292 15.4055L538.632 15.4055L536.012 21.092L585.021 21.092ZM534.914 21.092L537.534 15.4055L488.847 15.4055L485.858 21.092L534.914 21.092ZM1434.18 21.0921L1431.19 15.4057L1382.5 15.4057L1385.12 21.0921L1434.18 21.0921ZM1384.02 21.0921L1381.4 15.4057L1332.74 15.4056L1335.01 21.0921L1384.02 21.0921ZM1333.94 21.0921L1331.67 15.4056L1283.03 15.4056L1284.97 21.0921L1333.94 21.0921ZM1283.91 21.0921L1281.98 15.4056L1233.35 15.4056L1234.97 21.0921L1283.91 21.0921ZM1233.94 21.0921L1232.32 15.4056L1183.71 15.4056L1185.02 21.0921L1233.94 21.0921ZM1082.85 10.4518L1083.35 14.4056L1034.82 14.4056L1034.52 10.4518L1082.85 10.4518ZM1033.51 10.4518L1033.81 14.4056L985.283 14.4056L985.183 10.4518L1033.51 10.4518ZM984.183 10.4518L984.282 14.4056L935.753 14.4056L935.853 10.4517L984.183 10.4518ZM934.853 10.4517L934.753 14.4056L886.223 14.4055L886.521 10.4517L934.853 10.4517ZM885.519 10.4517L885.22 14.4055L836.687 14.4055L837.187 10.4517L885.519 10.4517ZM836.179 10.4517L835.68 14.4055L787.142 14.4055L787.845 10.4517L836.179 10.4517ZM786.83 10.4517L786.127 14.4055L737.583 14.4055L738.495 10.4517L786.83 10.4517ZM737.47 10.4517L736.558 14.4055L688.004 14.4055L689.13 10.4517L737.47 10.4517ZM688.092 10.4517L686.966 14.4055L638.401 14.4055L639.749 10.4517L688.092 10.4517ZM638.694 10.4517L637.346 14.4055L588.766 14.4055L590.345 10.4517L638.694 10.4517ZM589.271 10.4517L587.692 14.4055L539.093 14.4055L540.915 10.4517L589.271 10.4517ZM539.817 10.4517L537.995 14.4055L489.373 14.4055L491.452 10.4517L539.817 10.4517ZM1428.58 10.4518L1430.66 14.4057L1382.04 14.4057L1380.22 10.4518L1428.58 10.4518ZM1379.12 10.4518L1380.94 14.4057L1332.34 14.4056L1330.76 10.4518L1379.12 10.4518ZM1329.69 10.4518L1331.27 14.4056L1282.69 14.4056L1281.34 10.4518L1329.69 10.4518ZM1280.29 10.4518L1281.63 14.4056L1233.07 14.4056L1231.94 10.4518L1280.29 10.4518ZM1230.91 10.4518L1232.03 14.4056L1183.48 14.4056L1182.57 10.4518L1230.91 10.4518ZM1082.72 9.45177L1082.4 6.90062L1034.25 6.90061L1034.44 9.45176L1082.72 9.45177ZM1033.44 9.45176L1033.25 6.90061L985.094 6.90061L985.158 9.45176L1033.44 9.45176ZM984.158 9.45176L984.094 6.90061L935.942 6.90055L935.878 9.45169L984.158 9.45176ZM934.878 9.45169L934.942 6.90055L886.789 6.90054L886.597 9.45169L934.878 9.45169ZM885.594 9.45169L885.786 6.90054L837.635 6.90054L837.313 9.45168L885.594 9.45169ZM836.305 9.45168L836.628 6.90054L788.477 6.90053L788.023 9.45168L836.305 9.45168ZM787.008 9.45168L787.462 6.90053L739.314 6.90053L738.725 9.45168L787.008 9.45168ZM737.7 9.45168L738.288 6.90053L690.142 6.90052L689.415 9.45167L737.7 9.45168ZM688.377 9.45167L689.103 6.90052L640.959 6.90052L640.09 9.45167L688.377 9.45167ZM639.035 9.45167L639.905 6.90052L591.764 6.90052L590.745 9.45166L639.035 9.45167ZM589.67 9.45166L590.689 6.90052L542.551 6.90051L541.375 9.45166L589.67 9.45166ZM540.278 9.45166L541.453 6.90051L493.319 6.90051L491.977 9.45165L540.278 9.45166ZM1428.06 9.4518L1426.72 6.90065L1378.58 6.90064L1379.76 9.45179L1428.06 9.4518ZM1378.66 9.45179L1377.48 6.90064L1329.35 6.90064L1330.37 9.45179L1378.66 9.45179ZM1329.29 9.45179L1328.27 6.90064L1280.13 6.90064L1281 9.45178L1329.29 9.45179ZM1279.95 9.45178L1279.08 6.90064L1230.93 6.90063L1231.66 9.45178L1279.95 9.45178ZM1230.62 9.45178L1229.89 6.90063L1181.75 6.90063L1182.34 9.45178L1230.62 9.45178ZM1082.09 4.4594L1082.27 5.90062L1034.17 5.90061L1034.06 4.45939L1082.09 4.4594ZM1033.06 4.45939L1033.17 5.90061L985.069 5.90061L985.033 4.45939L1033.06 4.45939ZM984.033 4.45939L984.069 5.90061L935.967 5.90055L936.003 4.45932L984.033 4.45939ZM935.003 4.45932L934.967 5.90055L886.865 5.90054L886.973 4.45932L935.003 4.45932ZM885.971 4.45932L885.862 5.90054L837.761 5.90054L837.943 4.45931L885.971 4.45932ZM836.936 4.45931L836.754 5.90054L788.655 5.90053L788.911 4.45931L836.936 4.45931ZM787.896 4.45931L787.64 5.90053L739.544 5.90053L739.877 4.4593L787.896 4.45931ZM738.851 4.4593L738.519 5.90053L690.427 5.90052L690.837 4.4593L738.851 4.4593ZM689.799 4.4593L689.388 5.90052L641.3 5.90052L641.792 4.4593L689.799 4.4593ZM640.737 4.4593L640.246 5.90052L592.163 5.90052L592.739 4.45929L640.737 4.4593ZM591.664 4.45929L591.089 5.90052L543.012 5.90051L543.676 4.45929L591.664 4.45929ZM542.578 4.45929L541.914 5.90051L493.844 5.90051L494.602 4.45928L542.578 4.45929ZM1425.43 4.45943L1426.19 5.90065L1378.12 5.90064L1377.46 4.45942L1425.43 4.45943ZM1376.36 4.45942L1377.02 5.90064L1328.95 5.90064L1328.37 4.45942L1376.36 4.45942ZM1327.3 4.45942L1327.87 5.90064L1279.79 5.90064L1279.3 4.45941L1327.3 4.45942ZM1278.24 4.45941L1278.74 5.90064L1230.65 5.90063L1230.24 4.45941L1278.24 4.45941ZM1229.2 4.45941L1229.61 5.90063L1181.52 5.90063L1181.18 4.4594L1229.2 4.45941ZM1081.97 3.4594L1081.89 2.86723L1033.94 2.86723L1033.99 3.45939L1081.97 3.4594ZM1032.99 3.45939L1032.94 2.86723L984.993 2.86722L985.008 3.45939L1032.99 3.45939ZM984.008 3.45939L983.993 2.86722L936.043 2.86716L936.028 3.45932L984.008 3.45939ZM935.028 3.45932L935.043 2.86716L887.093 2.86715L887.049 3.45932L935.028 3.45932ZM886.046 3.45932L886.091 2.86715L838.144 2.86715L838.07 3.45931L886.046 3.45932ZM837.062 3.45931L837.137 2.86715L789.194 2.86715L789.089 3.45931L837.062 3.45931ZM788.074 3.45931L788.179 2.86715L740.244 2.86714L740.107 3.4593L788.074 3.45931ZM739.082 3.4593L739.218 2.86714L691.291 2.86714L691.122 3.4593L739.082 3.4593ZM690.084 3.4593L690.252 2.86714L642.334 2.86713L642.133 3.4593L690.084 3.4593ZM641.078 3.4593L641.28 2.86713L593.375 2.86713L593.138 3.45929L641.078 3.4593ZM592.064 3.45929L592.3 2.86713L544.41 2.86712L544.137 3.45929L592.064 3.45929ZM543.039 3.45929L543.312 2.86712L495.439 2.86712L495.128 3.45928L543.039 3.45929ZM1424.91 3.45943L1424.6 2.86726L1376.72 2.86726L1377 3.45942L1424.91 3.45943ZM1375.9 3.45942L1375.63 2.86726L1327.74 2.86725L1327.97 3.45942L1375.9 3.45942ZM1326.9 3.45942L1326.66 2.86725L1278.76 2.86725L1278.96 3.45941L1326.9 3.45942ZM1277.9 3.45941L1277.7 2.86725L1229.78 2.86725L1229.95 3.45941L1277.9 3.45941ZM1228.91 3.45941L1228.75 2.86725L1180.82 2.86724L1180.95 3.4594L1228.91 3.45941Z" fill="url(#paint0_radial_822_85)"/>
<defs>
<radialGradient id="paint0_radial_822_85" cx="0" cy="0" r="1" gradientUnits="userSpaceOnUse" gradientTransform="translate(960 441.898) rotate(-90) scale(280.5 843.829)">
<stop stop-color="#B3B3B3" stop-opacity="0.15"/>
<stop offset="1" stop-color="white" stop-opacity="0"/>
</radialGradient>
</defs>
</svg>
