<svg width="166" height="268" viewBox="0 0 166 268" fill="none" xmlns="http://www.w3.org/2000/svg">
<path d="M52.7266 262.673C51.099 264.707 49.3493 265.969 47.4775 266.457C45.6058 266.945 43.8968 266.783 42.3506 265.969C40.8857 265.155 39.8278 263.853 39.1768 262.062C38.6071 260.272 38.8105 258.116 39.7871 255.593L76.7744 158.791H7.19434C5.07845 158.791 3.41016 158.221 2.18945 157.082C1.05013 155.861 0.480469 154.396 0.480469 152.688C0.480469 150.572 1.37565 148.415 3.16602 146.218L113.273 5.22656C114.82 3.19206 116.529 1.93066 118.4 1.44238C120.354 0.872721 122.062 0.994792 123.527 1.80859C125.074 2.6224 126.132 3.92448 126.701 5.71484C127.352 7.50521 127.189 9.66178 126.213 12.1846L89.2256 108.986H158.806C160.922 108.986 162.549 109.597 163.688 110.817C164.909 112.038 165.52 113.462 165.52 115.09C165.52 117.206 164.584 119.362 162.712 121.56L52.7266 262.673ZM58.708 236.794L56.1445 235.329L141.96 123.146H67.7412L107.17 31.1055L109.733 32.4482L23.918 144.753H98.2588L58.708 236.794Z" fill="#4C8BFF"/>
</svg>
