<svg xmlns="http://www.w3.org/2000/svg" version="1.1" xmlns:xlink="http://www.w3.org/1999/xlink" xmlns:svgjs="http://svgjs.dev/svgjs" width="412" height="412"><svg width="412" height="412" viewBox="0 0 412 412" fill="none" xmlns="http://www.w3.org/2000/svg">
<rect width="412" height="412" rx="90" fill="black"></rect>
<path d="M97.2925 106.419C94.9595 108.259 94.5108 110.637 94.5108 120.776C94.5557 132.89 96.1708 144.016 100.164 159.988C104.561 177.62 109.675 189.554 115.373 195.611C116.36 196.687 117.168 197.585 117.168 197.674C117.168 197.764 116.046 199.828 114.655 202.251C113.264 204.718 111.335 208.263 110.393 210.147L108.643 213.646H115.418H122.192L119.231 217.191C109.989 228.272 101.555 245.007 100.702 253.89C100.568 255.46 100.523 256.717 100.612 256.717C100.747 256.717 102.542 255.999 104.605 255.101C108.509 253.486 114.655 251.781 116.809 251.781H118.02L117.392 253.531C115.463 259.005 114.162 269.683 115.508 269.144C132.556 262.19 140.004 261.158 149.605 264.433C155.123 266.318 155.392 266.542 157.052 270.804C162.526 284.892 174.236 297.454 186.798 302.748C192.944 305.35 196.578 306.113 203.981 306.382C211.653 306.651 216.229 306.023 222.241 303.825C236.418 298.665 248.577 286.013 254.903 269.862C256.204 266.587 256.563 266.004 258.447 264.837C262.261 262.414 264.414 261.921 270.605 261.921C277.201 261.966 281.687 262.998 289.897 266.363C292.724 267.484 295.461 268.561 295.909 268.695C296.717 268.965 296.762 268.74 296.492 264.074C296.313 260.979 295.819 257.793 295.146 255.415L294.025 251.692L296.448 251.961C299.364 252.275 305.51 254.204 308.382 255.64C309.548 256.223 310.625 256.717 310.759 256.717C311.208 256.717 310.984 252.813 310.266 249.538C308.471 240.969 301.158 227.33 293.083 217.594L289.852 213.646H296.627H303.357L301.383 209.698C300.306 207.545 298.377 204 297.121 201.802C295.864 199.604 294.832 197.719 294.832 197.585C294.832 197.495 295.775 196.328 296.986 195.027C303.716 187.58 309.862 171.159 314.304 148.592C316.816 135.851 317.444 130.018 317.489 120.552C317.489 111.04 317.085 108.887 314.977 106.733C313.765 105.522 313.406 105.432 311.522 105.657C306.452 106.24 297.704 109.694 285.411 115.841C267.33 124.859 250.82 135.581 241.712 144.24L238.168 147.56L233.412 146.798C225.651 145.452 218.428 145.003 206 145.003C193.528 145.003 186.349 145.452 178.453 146.798L173.563 147.605L170.916 144.958C161.943 135.985 144.535 124.679 124.615 114.899C115.552 110.412 108.823 107.675 103.843 106.374C99.5357 105.298 98.7281 105.298 97.2925 106.419ZM118.738 126.967C129.819 132.396 146.061 142.311 154.989 149.175C157.008 150.701 158.937 152.181 159.251 152.451C159.744 152.81 159.027 153.438 155.751 155.322C147.496 160.167 138.389 168.467 130.851 177.979C128.877 180.446 126.948 183.004 126.499 183.587C125.782 184.708 125.782 184.708 125.064 183.811C123.628 181.927 119.411 173.223 116.988 167.166C111.649 153.752 106.714 128.762 108.464 124.141C109.002 122.84 111.829 123.603 118.738 126.967ZM303.357 124.32C305.421 128.268 300.441 153.572 294.743 167.66C292.275 173.851 286.891 184.529 286.308 184.439C286.174 184.439 284.469 182.286 282.495 179.684C274.868 169.634 264.952 160.437 256.204 155.322L252.121 152.944L253.198 152.092C265.76 142.177 285.635 129.928 296.762 125.218C301.428 123.244 302.684 123.109 303.357 124.32ZM175.941 191.438C177.376 192.201 178.722 193.681 179.799 195.7C180.517 197.046 180.651 198.303 180.651 204.449C180.651 210.595 180.517 211.852 179.799 213.198C177.825 216.921 175.627 218.267 171.454 218.267C167.282 218.267 165.083 216.921 163.109 213.198C162.391 211.852 162.257 210.595 162.257 204.449C162.257 197.899 162.347 197.091 163.244 195.431C164.365 193.323 166.564 191.304 167.999 190.99C168.538 190.9 169.39 190.72 169.884 190.586C171.23 190.317 174.639 190.81 175.941 191.438ZM245.032 191.438C246.468 192.201 247.814 193.681 248.891 195.7C249.609 197.046 249.743 198.303 249.743 204.449C249.743 210.595 249.609 211.852 248.891 213.198C246.917 216.921 244.718 218.267 240.546 218.267C236.374 218.267 234.175 216.921 232.201 213.198C231.483 211.852 231.349 210.595 231.349 204.449C231.349 197.899 231.438 197.091 232.336 195.431C233.457 193.323 235.656 191.304 237.091 190.99C237.63 190.9 238.482 190.72 238.976 190.586C240.322 190.317 243.731 190.81 245.032 191.438ZM219.011 267.26C225.83 267.574 226.189 267.664 226.189 269.503C226.189 273.765 216.274 286.686 209.814 290.769C205.776 293.326 202.994 292.339 196.848 286.148C190.746 280.091 185.811 272.599 185.811 269.413C185.811 267.574 186.439 267.439 196.578 267.035C204.25 266.721 208.647 266.766 219.011 267.26Z" fill="#ECECEC"></path>
</svg><style>@media (prefers-color-scheme: light) { :root { filter: none; } }
@media (prefers-color-scheme: dark) { :root { filter: none; } }
</style></svg>